<svg version="1.1" id="Layer_1" xmlns="http://www.w3.org/2000/svg" xmlns:xlink="http://www.w3.org/1999/xlink" x="0px" y="0px"
	 width="100%" viewBox="0 0 891 894" enable-background="new 0 0 891 894" xml:space="preserve">
<path fill="#000000" opacity="1.000000" stroke="none" 
	d="
M1.000000,521.000000 
	C1.000000,347.686890 1.000000,174.373795 1.000000,1.030344 
	C297.945099,1.030344 594.890198,1.030344 891.917664,1.030344 
	C891.917664,298.910309 891.917664,596.820679 891.917664,894.865479 
	C595.000061,894.865479 298.000031,894.865479 1.000010,894.869263 
	C1.000000,772.220642 1.000000,649.568298 1.425906,526.457397 
	C5.687708,526.434448 6.910505,524.933044 5.299441,521.000000 
	C3.875936,521.000000 2.437968,521.000000 1.000000,521.000000 
M321.232666,224.036942 
	C318.772644,227.292145 319.530975,230.566971 322.343414,232.710632 
	C327.547424,236.677094 332.019958,241.196945 335.786865,246.518951 
	C336.875366,248.056854 338.364502,249.395874 339.894531,250.520554 
	C344.277496,253.742416 348.988312,256.552979 353.149353,260.029083 
	C355.680847,262.143860 357.433929,265.190460 360.228912,268.683685 
	C353.815002,267.828796 348.948029,267.180115 343.537445,266.458984 
	C343.944214,269.144653 343.633545,271.196106 344.478119,271.945374 
	C347.783325,274.877686 347.622131,277.687378 347.621948,282.143860 
	C347.621704,289.316223 348.243164,297.312256 353.162201,303.973206 
	C354.942474,306.383942 356.699951,310.527771 353.392181,313.851990 
	C350.205261,312.113434 347.370544,310.436066 344.423737,308.986603 
	C338.200897,305.925629 331.955688,302.904816 325.652069,300.014923 
	C319.007874,296.968811 312.382812,293.821045 305.518280,291.363129 
	C304.048981,290.837006 301.218781,292.718414 299.740082,294.209381 
	C299.018555,294.936859 299.366425,297.900970 300.275543,298.831909 
	C302.354523,300.960754 305.066833,302.475555 307.542023,304.211121 
	C308.777130,305.077240 310.150879,305.768158 311.297546,306.733582 
	C314.560089,309.480499 317.805450,312.255554 320.925018,315.161835 
	C322.886414,316.989136 324.609436,319.072388 326.880890,321.515686 
	C318.741119,323.015594 312.023010,322.358490 304.944641,321.514008 
	C296.336823,320.487000 287.248291,322.699982 278.501678,324.261475 
	C276.654633,324.591187 274.566650,327.995911 274.082306,330.297791 
	C273.591614,332.629913 275.018494,335.565033 278.099823,335.928711 
	C286.982086,336.977081 295.939148,337.468323 304.778290,338.776520 
	C310.037201,339.554871 315.637390,340.489532 318.853821,345.913605 
	C316.624817,347.577850 314.641602,349.386505 312.371216,350.697998 
	C301.450073,357.006439 290.886169,363.798553 282.053345,372.917877 
	C279.487640,375.566895 277.513550,379.079163 280.218964,382.388367 
	C282.650146,385.362122 286.099457,384.660767 289.138275,382.427887 
	C290.030640,381.772156 291.170929,381.456146 292.192413,380.973389 
	C302.550018,376.078461 312.938202,371.246490 323.247925,366.252594 
	C327.389313,364.246582 335.669098,364.588501 338.478271,366.891296 
	C338.303314,369.061554 337.826904,370.978851 338.085968,372.791016 
	C338.394409,374.948395 339.772369,376.987396 339.910004,379.127594 
	C340.204895,383.713654 340.000366,388.331818 340.000366,392.754425 
	C347.838409,389.375458 353.331360,383.839417 356.396637,375.544952 
	C357.265961,373.192688 360.661255,370.551666 363.169159,370.242584 
	C373.079926,369.021149 383.094910,368.600586 393.082672,368.122223 
	C394.010162,368.077820 395.018585,369.722412 395.989441,370.582794 
	C394.960938,371.388306 394.037231,372.601593 392.878265,372.899475 
	C391.315186,373.301300 389.567719,372.930878 387.905060,373.010071 
	C381.500977,373.315155 375.078522,373.456421 368.703796,374.077789 
	C364.612000,374.476654 360.868896,375.809540 359.658783,380.672394 
	C359.138123,382.764557 358.172516,384.955688 356.799103,386.588928 
	C351.475159,392.919891 344.298309,396.675903 336.891022,399.952301 
	C335.667786,400.493317 334.007141,400.045349 332.548615,400.054443 
	C332.673065,398.537018 332.297607,396.714661 333.005890,395.553314 
	C336.659912,389.562347 335.182800,383.351807 334.661926,376.501862 
	C330.182007,380.725067 326.249054,384.462860 322.281311,388.163391 
	C319.143127,391.090240 316.082764,394.117676 312.775116,396.842163 
	C305.955353,402.459656 298.860962,407.749115 292.138550,413.477448 
	C287.944550,417.051239 284.401337,421.385132 280.235168,424.996185 
	C276.842773,427.936432 272.604187,429.939423 269.381958,433.027130 
	C265.266266,436.971008 261.946259,441.730774 258.011475,445.881104 
	C251.697159,452.541321 244.902069,458.760468 238.803864,465.605835 
	C234.474686,470.465454 231.030212,476.104126 227.064621,481.298706 
	C219.285126,491.489288 211.360199,501.569092 203.608109,511.780304 
	C199.002808,517.846436 193.941666,523.703369 190.272156,530.313110 
	C183.692322,542.165100 177.932358,554.477356 171.982101,566.671570 
	C169.265198,572.239441 166.927795,577.991760 164.384277,583.645142 
	C163.076294,586.552307 161.693665,589.425842 160.307495,592.394348 
	C160.419815,592.432800 159.754486,592.204834 158.807343,591.880249 
	C158.807343,595.154724 159.082275,598.018860 158.716537,600.798706 
	C158.445419,602.859375 157.879257,605.373962 156.496765,606.692932 
	C153.640778,609.417542 151.602737,612.886536 151.992401,616.135071 
	C152.132111,617.299866 152.116089,618.592163 151.757889,619.691589 
	C146.546402,635.688049 140.833420,651.535461 136.112564,667.673584 
	C130.617157,686.459595 126.490776,705.654480 120.718147,724.346985 
	C118.298019,732.183655 117.131966,740.622864 111.813828,747.659973 
	C109.084824,751.271118 108.548698,756.479431 106.707031,760.832886 
	C102.017609,771.917969 96.843262,782.453125 85.713608,789.047119 
	C76.198250,794.684692 66.733238,795.443665 56.588829,791.939514 
	C54.959351,791.376648 53.404602,790.601013 51.788265,789.995972 
	C45.556511,787.663391 39.971237,784.800110 36.016777,778.843201 
	C33.693443,775.343323 29.532089,773.063660 26.197466,770.235168 
	C27.420113,781.132324 27.498116,781.623657 31.392427,786.151184 
	C32.937965,787.947998 34.951992,789.356812 36.820919,790.857300 
	C40.377541,793.712830 43.672573,797.082947 47.627823,799.217041 
	C58.593628,805.133606 70.006004,810.228516 80.919586,816.233826 
	C87.589325,819.903992 94.566399,820.604553 101.827904,820.810120 
	C108.919884,821.010864 114.700897,817.377930 120.748665,814.489807 
	C127.292542,811.364807 134.052475,808.983276 141.424484,809.036133 
	C148.796799,809.088989 156.273453,810.070190 163.514374,809.149780 
	C173.088654,807.932678 182.501404,805.361938 191.937286,803.173523 
	C196.796616,802.046509 202.386139,801.631714 206.181381,798.877441 
	C213.330719,793.688904 217.450668,785.730713 217.844406,776.836792 
	C218.297409,766.604004 217.665833,756.316528 217.343307,746.057922 
	C217.039902,736.407532 220.261810,728.433777 228.569382,723.246338 
	C232.382553,720.865356 236.836044,719.513428 240.989304,717.672546 
	C246.516098,715.223022 251.925552,712.461853 257.580658,710.359802 
	C265.401276,707.452820 268.634186,700.217285 268.104187,692.254517 
	C267.685425,685.963074 268.107849,679.610352 268.305450,673.289429 
	C268.333374,672.397461 269.163666,671.504517 269.698914,670.660461 
	C270.572540,669.282715 271.508972,667.944824 272.418884,666.590149 
	C272.566498,665.211975 274.149139,664.737061 274.829742,663.680908 
	C275.715668,662.306152 275.413177,660.026001 276.454651,658.918091 
	C279.233948,655.961487 282.162750,652.950867 285.568787,650.819397 
	C292.200745,646.669312 299.141174,642.995361 306.062775,639.329834 
	C312.730865,635.798645 320.040619,635.430237 327.433746,635.140747 
	C332.353912,634.948059 337.629852,634.651123 342.031555,632.747498 
	C347.475220,630.393433 350.018951,624.790039 351.515533,619.141968 
	C353.410004,611.992065 356.065552,605.534790 363.203278,601.931885 
	C367.350220,599.838623 371.672516,597.853882 375.301910,595.031006 
	C380.555878,590.944580 385.309631,586.202698 390.174225,581.631348 
	C395.954651,576.199280 402.060364,571.028625 407.242096,565.064453 
	C414.753296,556.419006 423.866364,548.884155 427.901459,537.583801 
	C428.206787,536.728699 428.811462,535.862366 429.510895,535.284363 
	C437.246063,528.892212 444.962921,522.474609 452.828339,516.245056 
	C455.963898,513.761780 457.741272,515.671021 457.851776,518.865967 
	C458.098816,526.009399 457.913544,533.166626 458.016052,540.316650 
	C458.163757,550.617981 453.061157,559.235229 449.303619,568.316345 
	C444.889282,578.984863 435.247589,584.837769 427.496216,592.427612 
	C426.845123,593.065125 425.388428,592.949646 424.293671,593.051453 
	C420.772095,593.378906 417.031525,593.048706 413.815308,594.200500 
	C412.346252,594.726624 411.564087,598.069519 411.195923,600.257080 
	C411.075745,600.971069 413.150879,602.677979 414.394379,602.882446 
	C418.297058,603.523926 422.291656,603.583191 426.228912,604.050842 
	C427.484558,604.200073 428.929047,604.662048 429.773163,605.499146 
	C430.145721,605.868591 429.408966,607.626892 428.872192,608.584473 
	C427.892487,610.332153 426.506622,611.861938 425.604919,613.642029 
	C420.575714,623.570618 418.772430,635.198364 409.748169,643.084229 
	C408.809601,643.904358 409.320374,647.068054 410.041687,648.770203 
	C410.335785,649.464294 413.368530,649.836914 414.496216,649.196045 
	C419.891632,646.129883 425.061066,642.666077 430.419830,639.274597 
	C430.159912,641.813354 430.282562,645.401489 429.344330,648.686584 
	C427.841553,653.948608 425.419983,658.945068 423.845184,664.191345 
	C423.302673,665.998535 424.130157,668.216919 424.331818,670.247498 
	C426.514801,669.886230 429.301086,670.234985 430.747131,669.006348 
	C433.260834,666.870667 435.323669,663.959045 436.877472,661.005493 
	C438.548279,657.829468 439.415741,654.230774 440.633728,650.816528 
	C441.140533,650.952576 441.647339,651.088684 442.154144,651.224792 
	C441.767517,653.695801 441.823364,656.348450 440.899506,658.598877 
	C439.136230,662.893982 439.426361,666.084595 444.673889,668.200256 
	C457.421967,656.455139 455.769104,640.559998 456.273926,625.308777 
	C457.148254,627.525085 457.151093,630.231812 458.505585,631.610596 
	C459.982727,633.114197 462.675201,633.685425 464.925079,633.967651 
	C465.429749,634.031006 467.009003,631.135071 466.868683,629.723267 
	C466.369843,624.705261 464.958038,619.764832 464.630859,614.746887 
	C464.348541,610.417480 463.964935,605.536377 465.616943,601.773071 
	C467.967651,596.418152 472.845032,592.202087 475.396271,586.899658 
	C481.790253,573.610840 492.286469,562.358521 492.824524,546.122681 
	C493.336731,530.666687 496.539246,515.317627 497.816376,499.860199 
	C498.299347,494.014923 500.530121,490.872467 505.791473,489.116486 
	C510.827148,487.435822 515.876709,485.716492 520.723633,483.570190 
	C527.393921,480.616425 533.747742,476.926666 540.481506,474.143341 
	C547.058411,471.424835 554.181885,469.973328 560.635254,467.024323 
	C570.285583,462.614380 579.480286,457.219543 589.014099,452.539612 
	C599.694519,447.296844 606.583557,438.258820 614.211853,428.722015 
	C611.826050,429.278259 610.288391,429.898926 608.728638,429.960480 
	C590.220825,430.690674 571.708557,431.309998 553.200562,432.036285 
	C550.458435,432.143890 547.735291,432.684692 544.996887,432.960724 
	C544.008423,433.060333 542.972168,433.123230 542.006775,432.941833 
	C537.106079,432.020905 532.218811,431.027679 527.331848,430.035095 
	C511.922028,426.905304 496.412445,423.950775 484.146393,412.972443 
	C482.178162,411.210907 480.900116,408.678223 479.238708,406.414337 
	C490.498566,411.861359 500.658203,417.938873 511.611298,421.715088 
	C520.738770,424.861877 530.791443,425.343292 540.446960,426.928314 
	C543.026245,427.351715 545.677124,427.862854 548.250671,427.685974 
	C553.305969,427.338531 558.316528,426.370300 563.369995,425.958252 
	C572.907471,425.180573 582.463745,424.634094 592.009216,423.950867 
	C595.620544,423.692352 599.312073,422.653809 602.815369,423.117401 
	C617.717529,425.089569 631.822815,422.769653 645.694702,417.121368 
	C659.557312,411.476898 670.729736,402.566559 678.433777,390.012024 
	C683.114014,382.384979 686.485718,373.783508 689.328369,365.247803 
	C692.258362,356.450012 692.407410,347.267792 688.843018,338.313293 
	C688.400024,337.200378 688.804016,334.728638 689.559814,334.342316 
	C692.380005,332.900665 695.575073,332.218445 698.511230,330.972412 
	C705.687073,327.926941 713.107239,325.271454 719.847534,321.436737 
	C726.833496,317.462280 733.134644,312.284271 739.735352,307.632660 
	C736.753723,307.475555 733.921936,308.375549 731.027710,308.972717 
	C722.813477,310.667725 714.630310,312.710693 706.325806,313.708771 
	C699.758423,314.498108 693.028381,314.014496 686.374268,313.893402 
	C685.591553,313.879150 684.832214,312.579315 684.062073,311.875458 
	C684.915344,311.253021 685.739319,310.147156 686.627014,310.093384 
	C690.114014,309.882202 693.659729,310.334351 697.112732,309.931641 
	C704.684753,309.048492 712.544861,308.793945 719.673401,306.430878 
	C727.956299,303.685181 736.180237,303.027100 744.665955,302.982880 
	C748.395203,302.963440 748.712830,305.223114 746.828186,307.219452 
	C743.816284,310.409943 740.294006,313.201813 736.680542,315.722168 
	C731.009399,319.677734 725.308960,323.697113 719.208618,326.905518 
	C711.070007,331.186035 702.536682,334.716003 695.328857,338.035858 
	C695.665833,345.297485 695.973999,351.938171 696.292053,358.792389 
	C698.101074,358.132568 699.954956,357.538361 701.744202,356.789734 
	C709.731567,353.447754 713.306213,354.918365 717.679626,362.381165 
	C720.872253,367.828918 725.074646,372.684814 728.267944,378.132233 
	C731.379150,383.439575 737.250427,388.003479 735.769653,394.917725 
	C734.264282,401.946991 731.570068,408.746552 729.091980,415.535553 
	C726.706421,422.071289 723.775024,428.409027 721.437439,434.960114 
	C720.851196,436.603119 721.316772,438.827545 721.876770,440.602417 
	C722.262024,441.823608 723.724854,443.640564 724.561707,443.566162 
	C725.844299,443.452209 727.527405,442.197632 728.128296,440.977753 
	C732.024170,433.068848 735.691833,425.153351 741.346497,418.150970 
	C747.344971,410.722809 748.865601,410.610229 756.176453,417.295959 
	C763.846497,424.310120 766.060608,433.960785 769.863037,442.804535 
	C772.786621,449.604248 775.370728,456.500305 780.030823,462.332336 
	C781.265442,463.877563 782.855896,465.294708 784.568542,466.268097 
	C787.781616,468.094147 791.038208,466.643188 791.101257,463.171326 
	C791.155151,460.199249 791.912964,456.729309 788.425842,454.555450 
	C787.316895,453.864136 786.464539,452.312714 786.076904,450.984924 
	C783.302490,441.480835 780.685608,431.930817 778.002441,422.399994 
	C777.148743,419.367371 776.245972,416.348602 775.181213,412.689972 
	C777.089355,412.938446 778.616394,412.680847 779.469788,413.321075 
	C785.968933,418.197021 792.175537,423.475952 798.803467,428.162506 
	C802.996704,431.127563 807.578674,433.723755 812.319275,435.677307 
	C816.169495,437.263947 819.621033,433.822357 818.177856,429.816254 
	C817.112549,426.859131 814.826843,424.183777 812.609497,421.830811 
	C807.258240,416.152588 801.538757,410.822876 796.138977,405.188538 
	C791.719849,400.577454 787.459167,395.805664 783.295288,390.961639 
	C780.158020,387.312012 777.285034,383.435303 774.294373,379.659698 
	C774.561401,379.204224 774.828430,378.748718 775.095398,378.293243 
	C783.297485,379.950592 791.472290,381.763031 799.711731,383.207703 
	C804.731140,384.087830 809.853149,384.792358 814.922180,384.749634 
	C816.620911,384.735382 818.553467,382.352905 819.807007,380.635345 
	C820.122925,380.202423 818.478333,377.846222 817.300537,376.935150 
	C815.678528,375.680359 813.725525,374.722107 811.772400,374.047913 
	C799.749573,369.897888 787.507202,366.319672 775.687439,361.663574 
	C763.676270,356.932037 755.248474,347.438995 746.872314,337.977966 
	C747.905396,336.885986 748.487000,335.692871 749.286987,335.521881 
	C753.659424,334.587341 755.960999,331.472626 758.557678,328.177002 
	C761.849670,323.998901 766.037598,320.533081 769.763489,316.686768 
	C770.994385,315.416077 773.017822,313.834656 772.912720,312.538544 
	C772.500366,307.454224 776.213440,305.039368 778.713684,301.708008 
	C779.918579,300.102539 780.162781,297.776093 780.842041,295.776123 
	C780.571533,295.682068 780.300964,295.588013 780.030457,295.493958 
	C781.193848,293.301453 782.357239,291.108978 783.520630,288.916473 
	C781.245117,288.270844 778.969666,287.625183 777.182373,287.118073 
	C778.563171,285.437836 780.441284,283.433868 781.942627,281.178955 
	C782.498840,280.343597 782.169922,278.918976 782.244690,277.763062 
	C781.066284,277.744751 779.729004,277.356110 778.740356,277.780212 
	C776.158203,278.887726 773.728638,280.350922 770.677734,281.969666 
	C772.145508,277.411163 769.340881,276.800323 766.337585,276.720459 
	C765.029053,271.148956 767.926697,267.896240 771.712036,265.163361 
	C779.329834,259.663544 787.082581,254.346268 794.588196,248.699203 
	C796.003723,247.634140 796.529785,245.386871 797.625916,243.395126 
	C795.169739,243.038147 793.736267,242.829803 791.068604,242.442078 
	C794.173340,241.075974 796.070190,240.335373 797.876648,239.417007 
	C799.347534,238.669266 800.710205,237.708694 802.120789,236.842484 
	C801.933594,236.321243 801.746338,235.800003 801.559082,235.278763 
	C799.489380,235.123825 797.419678,234.968887 796.050842,234.866409 
	C799.846558,229.106567 803.580505,223.440475 807.381531,217.672577 
	C805.918579,217.066772 804.978882,216.677628 802.996216,215.856598 
	C805.955444,214.451355 808.139404,213.793869 809.864868,212.516876 
	C813.598267,209.753876 812.327881,207.446014 806.404602,206.470016 
	C807.294800,205.259613 808.286194,204.213776 808.906677,202.981216 
	C809.502258,201.798004 809.713318,200.421234 810.093323,199.129517 
	C808.724182,199.062439 807.297974,198.717087 805.997192,198.983566 
	C802.842834,199.629776 799.746826,200.560760 796.627258,201.376999 
	C797.148621,199.241837 798.363647,198.428726 799.118530,197.306168 
	C800.531555,195.204819 803.223450,192.352356 802.656921,190.821121 
	C800.643372,185.378983 803.634521,182.493774 806.738403,179.154724 
	C809.642944,176.030121 812.217712,172.598953 815.475220,168.651276 
	C806.846497,166.603210 804.414185,173.549545 799.586304,176.241913 
	C799.586304,174.352798 799.586304,172.801544 799.586304,171.477737 
	C800.777649,171.014221 802.301086,170.905029 802.896301,170.105148 
	C805.307739,166.864517 807.534058,163.472458 809.633240,160.017517 
	C811.317078,157.246094 812.880371,154.372971 814.162048,151.400452 
	C814.638489,150.295425 814.654358,148.078430 814.001221,147.619446 
	C813.082031,146.973511 811.043518,146.985321 810.007996,147.599686 
	C805.160034,150.476028 800.443176,153.583618 795.776367,156.751434 
	C792.552612,158.939743 789.486938,161.360901 785.164062,164.554596 
	C787.261902,160.265259 788.754028,157.411087 790.037292,154.465912 
	C790.401917,153.629013 790.559692,152.021683 790.104187,151.660400 
	C789.339661,151.053925 787.769104,150.684830 786.969543,151.083054 
	C785.757019,151.686951 784.790955,152.940552 783.934326,154.079239 
	C776.947021,163.366623 770.009644,172.691513 762.309875,181.881836 
	C761.849854,180.552612 761.389771,179.223389 760.986084,177.120972 
	C760.573669,175.368256 759.732239,173.583633 759.859619,171.871078 
	C760.011597,169.827682 760.951599,167.831879 761.623535,165.840179 
	C764.141479,158.376343 766.689270,150.922592 769.220703,143.480331 
	C764.982788,141.938995 762.560913,143.377060 760.993652,146.887329 
	C760.075684,148.943344 758.972168,150.918671 757.909607,152.907593 
	C752.307495,163.393875 746.626038,173.838882 741.163208,184.397141 
	C740.468689,185.739426 740.893738,187.660995 740.800171,189.314224 
	C741.208618,189.388855 741.617065,189.463470 742.025513,189.538101 
	C740.695496,191.431259 739.365479,193.324417 737.468628,196.024429 
	C735.303650,173.225235 745.431641,155.612640 756.776062,137.348587 
	C748.202637,137.118835 747.235107,145.194427 742.255615,147.160507 
	C741.057251,146.696472 739.668457,146.396072 738.734802,146.914871 
	C737.046509,147.852982 735.700928,149.390686 734.062073,150.444366 
	C733.472717,150.823288 731.729309,150.568222 731.727539,150.535873 
	C731.485107,146.112564 730.556030,141.511703 731.457886,137.304779 
	C732.268005,133.525467 735.268005,130.257462 736.939514,126.598312 
	C737.529724,125.306061 737.048157,123.524254 737.055969,121.965965 
	C735.627380,122.218246 734.033875,122.152740 732.805420,122.790565 
	C730.424438,124.026802 728.248962,125.658699 726.262085,126.948860 
	C725.683289,124.822639 725.194763,123.027794 724.874695,121.851967 
	C728.456604,115.347847 731.955383,108.994583 736.086731,101.492813 
	C727.100708,103.292931 722.864197,109.451126 717.422424,113.740105 
	C717.018860,113.349014 716.615356,112.957924 716.211792,112.566833 
	C723.164612,104.384636 730.117493,96.202438 737.070374,88.020233 
	C729.302734,86.966301 725.740234,93.192993 719.262207,96.048134 
	C725.576721,87.993782 732.890991,81.572601 733.202026,69.688629 
	C718.598511,77.411308 707.530151,87.494240 697.303833,98.355835 
	C697.180847,95.992065 697.050354,93.484261 696.919922,90.976456 
	C696.144104,90.756546 695.368347,90.536636 694.592590,90.316734 
	C690.512390,95.561684 689.748962,102.432922 687.294983,108.995026 
	C685.561462,103.122810 690.936462,97.375946 687.206726,91.434143 
	C681.902466,96.227814 677.868896,100.736649 680.195435,108.419624 
	C678.566833,107.558777 677.319885,106.496490 677.081360,105.242393 
	C676.140747,100.297470 675.656311,95.264053 674.657166,90.333466 
	C674.458923,89.355232 672.737244,88.685707 671.718140,87.873825 
	C671.028259,88.791512 670.077454,89.611694 669.691895,90.643135 
	C667.619507,96.187492 665.687622,101.784355 663.553589,107.795975 
	C663.012695,107.795975 661.589905,107.795975 661.180725,107.795975 
	C660.520081,105.078636 660.179565,102.853584 659.396790,100.796852 
	C658.988708,99.724823 657.801270,98.949417 656.965820,98.040054 
	C656.193848,99.146271 654.995911,100.158272 654.726624,101.375641 
	C653.768616,105.707588 653.126709,110.109451 652.454468,113.971443 
	C651.849121,110.390862 651.147705,106.241646 650.268311,101.039803 
	C648.368713,103.098778 647.193848,104.212410 646.205200,105.472183 
	C642.476746,110.223259 641.867859,115.813141 641.998352,121.590042 
	C642.070374,124.774963 641.613831,127.472801 637.350647,126.064941 
	C634.868652,132.253464 636.638733,139.606079 631.211914,144.643143 
	C630.719482,145.100204 631.266968,146.560577 631.114258,147.520477 
	C630.369141,152.205841 629.976379,157.004074 628.654175,161.527130 
	C626.810608,167.834076 623.984985,173.851929 622.096558,180.148529 
	C620.881836,184.198975 620.595581,188.527893 619.893188,192.731995 
	C619.137512,192.725220 618.381897,192.718430 617.626221,192.711655 
	C616.750610,189.004700 616.033569,185.250381 614.945068,181.607025 
	C614.185547,179.064636 613.161438,176.518417 611.745056,174.299774 
	C611.244934,173.516434 608.700562,173.047623 608.031616,173.592255 
	C606.999084,174.432983 606.019897,176.482956 606.347778,177.644806 
	C607.522034,181.806061 609.255493,185.809525 610.927002,190.271820 
	C608.557678,190.675613 606.873779,190.962585 604.679810,191.336502 
	C606.936890,204.609848 609.160828,217.688431 611.651855,232.337631 
	C603.097656,228.920822 595.927429,226.225571 588.897156,223.204529 
	C580.741028,219.699631 572.833252,215.591660 564.587097,212.327911 
	C555.710938,208.814774 546.597290,205.886993 536.815308,209.009338 
	C534.949219,209.604980 532.825500,209.419388 530.984619,210.063156 
	C525.113770,212.116196 519.221924,214.166367 513.533386,216.662369 
	C510.101227,218.168320 507.031219,220.499680 503.798492,222.460159 
	C503.413422,221.986832 503.028351,221.513504 502.643280,221.040176 
	C504.912354,218.016357 507.146088,214.965195 509.460602,211.976608 
	C511.673889,209.118805 514.252930,206.496307 516.106079,203.428970 
	C516.960327,202.014908 516.466980,199.786697 516.584717,197.927643 
	C514.943970,197.984375 513.033081,197.533554 511.730988,198.226624 
	C510.113251,199.087708 509.097168,201.008057 507.644073,202.266251 
	C505.490967,204.130539 503.182159,205.814972 500.939636,207.575958 
	C501.151978,205.225983 502.571014,203.917084 502.744629,202.459824 
	C503.847687,193.200531 508.767914,185.746002 513.419250,178.049149 
	C514.876099,175.638474 518.284790,172.066437 514.447144,169.627243 
	C513.195190,168.831467 508.869476,171.682251 506.749115,173.703873 
	C502.996460,177.281708 499.856171,181.501831 496.459595,185.453171 
	C495.911469,185.138885 495.363342,184.824585 494.815216,184.510300 
	C496.240936,179.810349 497.380188,174.995117 499.206573,170.456390 
	C500.201477,167.983932 502.517426,166.075851 503.952332,163.738144 
	C505.298706,161.544647 505.338165,158.863083 502.454163,158.307404 
	C500.802551,157.989166 498.583710,159.489304 496.938477,160.629898 
	C495.686096,161.498093 494.934906,163.089188 493.508240,164.948349 
	C492.961243,163.294449 492.561829,162.704376 492.617035,162.160461 
	C493.370514,154.739273 494.398926,147.337585 494.858856,139.900116 
	C494.997559,137.656937 493.924194,133.543411 492.848328,133.347336 
	C489.197449,132.682053 488.746124,135.774017 487.823853,138.901505 
	C485.685089,146.154404 482.614349,153.132477 479.921417,160.221954 
	C479.090607,160.126480 478.259766,160.031006 477.428955,159.935532 
	C476.962006,157.575333 475.990143,155.182892 476.138245,152.861954 
	C476.407104,148.649368 477.747101,144.487061 477.827484,140.288208 
	C477.867188,138.212540 476.020203,136.132706 475.176910,133.995544 
	C474.712372,132.818298 474.047272,131.371246 474.355560,130.299911 
	C475.528473,126.223923 477.715759,122.344261 478.300842,118.217789 
	C479.116608,112.464394 475.945648,106.135155 480.972473,100.891106 
	C481.136566,100.719917 479.015717,98.358421 477.959991,97.017952 
	C476.973755,98.031876 475.397369,98.896698 475.097443,100.084007 
	C473.211456,107.548996 471.628876,115.090218 469.891663,122.593658 
	C469.643677,123.664742 469.134552,124.682175 468.689484,125.699593 
	C467.140503,129.240219 465.765900,132.876709 463.946136,136.273819 
	C462.116577,139.689194 459.834473,142.862137 457.750671,146.141342 
	C457.255402,145.921539 456.760101,145.701736 456.264832,145.481934 
	C455.371124,138.877029 453.244110,132.336624 456.641388,125.600784 
	C457.171967,124.548767 455.917328,122.596359 455.488251,121.060326 
	C454.333252,121.926186 452.809296,122.564789 452.104980,123.708244 
	C450.882446,125.693153 450.166748,127.990257 449.238495,130.156433 
	C448.720612,130.036880 448.202759,129.917313 447.684906,129.797760 
	C447.789673,127.419350 447.741638,125.022423 448.027405,122.665970 
	C448.944885,115.100792 449.943420,107.544670 450.998657,99.997345 
	C451.457428,96.716042 449.170227,93.237617 446.998932,93.112694 
	C446.998932,89.139328 447.160706,85.229790 446.899414,81.348747 
	C446.821930,80.198471 445.717377,78.422234 444.787537,78.206116 
	C443.704651,77.954422 441.823303,78.750603 441.119415,79.704948 
	C439.037445,82.527679 437.364807,85.652382 435.003571,89.526024 
	C435.566650,83.832741 437.168976,78.649727 436.210510,73.993889 
	C435.375793,69.939125 431.650452,66.479408 428.302673,61.388535 
	C427.496124,64.414307 427.374695,66.179909 426.577332,67.552956 
	C425.391754,69.594543 423.879089,71.529297 422.125183,73.078911 
	C421.819519,73.348953 419.645203,71.488884 418.321869,70.631294 
	C417.919617,70.370605 417.476685,70.172585 417.975677,70.439217 
	C414.327240,71.476196 411.456207,72.292221 407.906311,73.301201 
	C407.552887,68.707695 407.380096,65.099564 406.950165,61.522358 
	C406.769440,60.018860 406.045044,58.580719 405.567810,57.112877 
	C404.547791,57.973049 403.583771,58.914627 402.489929,59.667599 
	C401.615845,60.269321 400.583740,60.641514 400.147827,60.856327 
	C397.441437,57.701134 395.278931,54.731915 392.596588,52.347458 
	C391.866730,51.698643 389.495636,52.619972 388.023743,53.194595 
	C387.248260,53.497360 386.624847,69.108353 387.345764,69.736160 
	C387.868927,70.191757 388.818329,70.157944 389.863953,70.411888 
	C389.154510,70.814896 388.464081,70.976997 388.395996,71.279282 
	C386.411865,80.087021 387.814941,88.620255 392.668427,95.951813 
	C395.247742,99.848083 398.286560,104.214890 403.354401,105.906357 
	C403.732697,106.032623 404.278687,106.569008 404.249054,106.864952 
	C403.930206,110.052338 404.299072,113.629990 402.934387,116.315613 
	C400.909424,120.300751 399.754242,123.375412 405.251953,125.919540 
	C404.815643,126.192368 404.379303,126.465202 403.942993,126.738029 
	C400.624725,124.513695 397.306488,122.289352 393.722015,119.307892 
	C393.705200,117.414688 393.679199,115.521515 393.673706,113.628273 
	C393.665436,110.784157 393.671539,107.940010 393.671539,105.095871 
	C393.143646,105.092644 392.615753,105.089409 392.087891,105.086182 
	C391.059265,110.078575 390.030670,115.070969 388.897949,120.847961 
	C390.614075,123.745171 392.252167,126.692253 394.064026,129.528336 
	C397.036224,134.180786 402.084686,137.727753 401.494354,144.234406 
	C401.282928,146.565002 401.059021,149.058990 401.652039,151.259842 
	C402.559937,154.629395 399.234558,158.974518 403.914398,161.486511 
	C403.930054,161.494919 403.368195,162.286636 403.328918,162.734680 
	C402.861877,168.061142 401.532776,173.517166 402.245056,178.689194 
	C403.107208,184.949036 405.546204,191.024780 407.622314,197.070480 
	C408.668365,200.116653 410.129791,203.114975 411.920441,205.788651 
	C414.672089,209.897278 417.640533,213.915604 420.962402,217.567017 
	C422.981201,219.786133 425.533356,221.346893 423.824371,223.598969 
	C425.486420,225.628021 426.741333,227.178345 428.018768,228.709915 
	C428.496033,229.282181 428.987244,229.853271 429.537842,230.352341 
	C434.028290,234.422638 438.594360,238.411972 443.006714,242.564835 
	C444.826538,244.277618 446.326294,246.330444 447.971649,248.228592 
	C445.383484,249.040924 442.795288,249.853241 439.942505,250.748611 
	C440.344421,253.698318 439.254578,258.576111 444.486420,257.655121 
	C448.500366,256.948547 451.625122,256.864410 454.995209,259.793640 
	C449.617004,262.343323 445.141052,267.238617 438.412048,262.894196 
	C434.016479,260.056335 428.497711,258.520538 429.867676,251.341034 
	C430.147736,249.873444 428.957855,247.958160 428.077606,246.466400 
	C424.923523,241.121246 421.683228,235.823380 418.337555,230.595947 
	C415.379944,225.974792 412.196655,221.498657 409.191101,216.907394 
	C406.749908,213.178192 404.217194,209.484772 402.109406,205.568604 
	C400.230988,202.078598 399.242584,198.087357 397.215179,194.704620 
	C393.655792,188.765793 389.712372,183.045059 385.704346,177.392853 
	C384.005249,174.996780 381.736267,173.004822 379.726288,170.829193 
	C379.274292,171.077942 378.822327,171.326706 378.370331,171.575455 
	C378.151581,173.602142 377.932861,175.628830 377.704315,177.746368 
	C377.250519,177.458252 376.643463,177.295349 376.461517,176.924072 
	C373.437042,170.753662 370.239197,164.706863 363.884613,161.259033 
	C362.750977,160.643936 361.261017,160.685516 359.935577,160.423889 
	C359.924072,161.559753 359.604553,162.806473 359.965118,163.808441 
	C360.717682,165.899750 361.964752,167.809464 362.768402,169.886749 
	C365.194519,176.157578 363.222626,183.300674 366.513275,189.449127 
	C366.606659,189.623581 365.525146,190.426819 365.020020,190.909561 
	C363.757965,188.682053 362.884247,186.577255 361.528503,184.851059 
	C357.219666,179.364990 354.528900,173.220642 353.189545,166.402313 
	C352.736115,164.093887 352.565857,161.217377 351.112976,159.717636 
	C347.349731,155.832977 344.039948,151.953354 343.784393,146.053818 
	C341.527374,146.241898 339.364471,146.422150 337.371674,146.588226 
	C338.684021,150.278091 339.783691,153.370026 340.883392,156.461960 
	C340.595276,156.604736 340.307190,156.747498 340.019104,156.890274 
	C337.746338,154.464661 335.473572,152.039047 333.573975,150.011688 
	C327.130249,151.418594 337.217102,157.359558 331.980042,158.131851 
	C326.969604,153.044830 322.637177,148.646210 318.304749,144.247589 
	C317.790466,144.591309 317.276215,144.935028 316.761932,145.278748 
	C317.590332,149.679108 318.418732,154.079483 319.253021,158.511093 
	C311.828522,159.451050 311.313660,160.700638 313.910217,167.673706 
	C316.479218,174.572708 319.030090,181.520782 320.880615,188.631653 
	C322.367767,194.346191 322.425049,200.437637 327.244629,204.862381 
	C328.132751,205.677719 328.298767,207.279617 328.798065,208.518463 
	C328.467896,208.782883 328.137695,209.047318 327.807495,209.311752 
	C326.678650,208.379868 325.593597,207.387177 324.408539,206.533279 
	C323.232880,205.686142 322.016815,204.547440 320.702850,204.363785 
	C319.844971,204.243896 317.940491,205.641739 317.973175,206.285126 
	C318.057678,207.948608 318.763062,209.675613 319.580658,211.181747 
	C320.512695,212.898666 321.834625,214.403915 322.932068,216.806046 
	C322.605011,219.106689 322.277985,221.407318 321.232666,224.036942 
M389.868835,769.871582 
	C389.216644,769.686646 388.006836,769.304626 387.992462,769.345215 
	C387.404266,771.009216 386.923645,772.711243 386.378540,774.583008 
	C388.827576,775.643005 391.224670,776.680542 394.305786,778.014160 
	C394.305786,774.566650 394.305786,771.567749 394.305786,768.260193 
	C392.593109,769.028320 391.572083,769.486267 389.868835,769.871582 
z"/>
<path fill="#FFFFFF" opacity="1.000000" stroke="none" 
	d="
M763.057068,182.005005 
	C770.009644,172.691513 776.947021,163.366623 783.934326,154.079239 
	C784.790955,152.940552 785.757019,151.686951 786.969543,151.083054 
	C787.769104,150.684830 789.339661,151.053925 790.104187,151.660400 
	C790.559692,152.021683 790.401917,153.629013 790.037292,154.465912 
	C788.754028,157.411087 787.261902,160.265259 785.164062,164.554596 
	C789.486938,161.360901 792.552612,158.939743 795.776367,156.751434 
	C800.443176,153.583618 805.160034,150.476028 810.007996,147.599686 
	C811.043518,146.985321 813.082031,146.973511 814.001221,147.619446 
	C814.654358,148.078430 814.638489,150.295425 814.162048,151.400452 
	C812.880371,154.372971 811.317078,157.246094 809.633240,160.017517 
	C807.534058,163.472458 805.307739,166.864517 802.896301,170.105148 
	C802.301086,170.905029 800.777649,171.014221 799.586304,171.477737 
	C799.586304,172.801544 799.586304,174.352798 799.586304,176.241913 
	C804.414185,173.549545 806.846497,166.603210 815.475220,168.651276 
	C812.217712,172.598953 809.642944,176.030121 806.738403,179.154724 
	C803.634521,182.493774 800.643372,185.378983 802.656921,190.821121 
	C803.223450,192.352356 800.531555,195.204819 799.118530,197.306168 
	C798.363647,198.428726 797.148621,199.241837 796.627258,201.376999 
	C799.746826,200.560760 802.842834,199.629776 805.997192,198.983566 
	C807.297974,198.717087 808.724182,199.062439 810.093384,199.129517 
	C809.713318,200.421234 809.502258,201.798004 808.906677,202.981216 
	C808.286194,204.213776 807.294800,205.259613 806.404602,206.470016 
	C812.327881,207.446014 813.598267,209.753876 809.864868,212.516876 
	C808.139404,213.793869 805.955444,214.451355 802.996216,215.856598 
	C804.978882,216.677628 805.918579,217.066772 807.381531,217.672577 
	C803.580505,223.440475 799.846558,229.106567 796.050842,234.866409 
	C797.419678,234.968887 799.489380,235.123825 801.559082,235.278763 
	C801.746338,235.800003 801.933594,236.321243 802.120789,236.842484 
	C800.710205,237.708694 799.347534,238.669266 797.876648,239.417007 
	C796.070190,240.335373 794.173340,241.075974 791.068604,242.442078 
	C793.736267,242.829803 795.169739,243.038147 797.625916,243.395126 
	C796.529785,245.386871 796.003723,247.634140 794.588196,248.699203 
	C787.082581,254.346268 779.329834,259.663544 771.712036,265.163361 
	C767.926697,267.896240 765.029053,271.148956 766.337585,276.720459 
	C769.340881,276.800323 772.145508,277.411163 770.677734,281.969666 
	C773.728638,280.350922 776.158203,278.887726 778.740356,277.780212 
	C779.729004,277.356110 781.066284,277.744751 782.244690,277.763062 
	C782.169922,278.918976 782.498840,280.343597 781.942627,281.178955 
	C780.441284,283.433868 778.563171,285.437836 777.182373,287.118073 
	C778.969666,287.625183 781.245117,288.270844 783.520630,288.916473 
	C782.357239,291.108978 781.193848,293.301453 780.030457,295.493958 
	C780.300964,295.588013 780.571533,295.682068 780.842041,295.776123 
	C780.162781,297.776093 779.918579,300.102539 778.713684,301.708008 
	C776.213440,305.039368 772.500366,307.454224 772.912720,312.538544 
	C773.017822,313.834656 770.994385,315.416077 769.763489,316.686768 
	C766.037598,320.533081 761.849670,323.998901 758.557678,328.177002 
	C755.960999,331.472626 753.659424,334.587341 749.286987,335.521881 
	C748.487000,335.692871 747.905396,336.885986 746.872314,337.977966 
	C755.248474,347.438995 763.676270,356.932037 775.687439,361.663574 
	C787.507202,366.319672 799.749573,369.897888 811.772400,374.047913 
	C813.725525,374.722107 815.678528,375.680359 817.300537,376.935150 
	C818.478333,377.846222 820.122925,380.202423 819.807007,380.635345 
	C818.553467,382.352905 816.620911,384.735382 814.922180,384.749634 
	C809.853149,384.792358 804.731140,384.087830 799.711731,383.207703 
	C791.472290,381.763031 783.297485,379.950592 775.095398,378.293243 
	C774.828430,378.748718 774.561401,379.204224 774.294373,379.659698 
	C777.285034,383.435303 780.158020,387.312012 783.295288,390.961639 
	C787.459167,395.805664 791.719849,400.577454 796.138977,405.188538 
	C801.538757,410.822876 807.258240,416.152588 812.609497,421.830811 
	C814.826843,424.183777 817.112549,426.859131 818.177856,429.816254 
	C819.621033,433.822357 816.169495,437.263947 812.319275,435.677307 
	C807.578674,433.723755 802.996704,431.127563 798.803467,428.162506 
	C792.175537,423.475952 785.968933,418.197021 779.469788,413.321075 
	C778.616394,412.680847 777.089355,412.938446 775.181213,412.689972 
	C776.245972,416.348602 777.148743,419.367371 778.002441,422.399994 
	C780.685608,431.930817 783.302490,441.480835 786.076904,450.984924 
	C786.464539,452.312714 787.316895,453.864136 788.425842,454.555450 
	C791.912964,456.729309 791.155151,460.199249 791.101257,463.171326 
	C791.038208,466.643188 787.781616,468.094147 784.568542,466.268097 
	C782.855896,465.294708 781.265442,463.877563 780.030823,462.332336 
	C775.370728,456.500305 772.786621,449.604248 769.863037,442.804535 
	C766.060608,433.960785 763.846497,424.310120 756.176453,417.295959 
	C748.865601,410.610229 747.344971,410.722809 741.346497,418.150970 
	C735.691833,425.153351 732.024170,433.068848 728.128296,440.977753 
	C727.527405,442.197632 725.844299,443.452209 724.561707,443.566162 
	C723.724854,443.640564 722.262024,441.823608 721.876770,440.602417 
	C721.316772,438.827545 720.851196,436.603119 721.437439,434.960114 
	C723.775024,428.409027 726.706421,422.071289 729.091980,415.535553 
	C731.570068,408.746552 734.264282,401.946991 735.769653,394.917725 
	C737.250427,388.003479 731.379150,383.439575 728.267944,378.132233 
	C725.074646,372.684814 720.872253,367.828918 717.679626,362.381165 
	C713.306213,354.918365 709.731567,353.447754 701.744202,356.789734 
	C699.954956,357.538361 698.101074,358.132568 696.292053,358.792389 
	C695.973999,351.938171 695.665833,345.297485 695.328857,338.035858 
	C702.536682,334.716003 711.070007,331.186035 719.208618,326.905518 
	C725.308960,323.697113 731.009399,319.677734 736.680542,315.722168 
	C740.294006,313.201813 743.816284,310.409943 746.828186,307.219452 
	C748.712830,305.223114 748.395203,302.963440 744.665955,302.982880 
	C736.180237,303.027100 727.956299,303.685181 719.673401,306.430878 
	C712.544861,308.793945 704.684753,309.048492 697.112732,309.931641 
	C693.659729,310.334351 690.114014,309.882202 686.627014,310.093384 
	C685.739319,310.147156 684.915344,311.253021 684.062073,311.875427 
	C684.832214,312.579315 685.591553,313.879150 686.374268,313.893402 
	C693.028381,314.014496 699.758423,314.498108 706.325806,313.708771 
	C714.630310,312.710693 722.813477,310.667725 731.027710,308.972717 
	C733.921936,308.375549 736.753723,307.475555 739.735352,307.632660 
	C733.134644,312.284271 726.833496,317.462280 719.847534,321.436737 
	C713.107239,325.271454 705.687073,327.926941 698.511230,330.972412 
	C695.575073,332.218445 692.380005,332.900665 689.559814,334.342316 
	C688.804016,334.728638 688.400024,337.200378 688.843018,338.313293 
	C692.407410,347.267792 692.258362,356.450012 689.328369,365.247803 
	C686.485718,373.783508 683.114014,382.384979 678.433777,390.012024 
	C670.729736,402.566559 659.557312,411.476898 645.694702,417.121368 
	C631.822815,422.769653 617.717529,425.089569 602.815369,423.117401 
	C599.312073,422.653809 595.620544,423.692352 592.009216,423.950867 
	C582.463745,424.634094 572.907471,425.180573 563.369995,425.958252 
	C558.316528,426.370300 553.305969,427.338531 548.250671,427.685974 
	C545.677124,427.862854 543.026245,427.351715 540.446960,426.928314 
	C530.791443,425.343292 520.738770,424.861877 511.611298,421.715088 
	C500.658203,417.938873 490.498566,411.861359 479.238708,406.414337 
	C480.900116,408.678223 482.178162,411.210907 484.146393,412.972443 
	C496.412445,423.950775 511.922028,426.905304 527.331848,430.035095 
	C532.218811,431.027679 537.106079,432.020905 542.006775,432.941833 
	C542.972168,433.123230 544.008423,433.060333 544.996887,432.960724 
	C547.735291,432.684692 550.458435,432.143890 553.200562,432.036285 
	C571.708557,431.309998 590.220825,430.690674 608.728638,429.960480 
	C610.288391,429.898926 611.826050,429.278259 614.211853,428.722015 
	C606.583557,438.258820 599.694519,447.296844 589.014099,452.539612 
	C579.480286,457.219543 570.285583,462.614380 560.635254,467.024323 
	C554.181885,469.973328 547.058411,471.424835 540.481506,474.143341 
	C533.747742,476.926666 527.393921,480.616425 520.723633,483.570190 
	C515.876709,485.716492 510.827148,487.435822 505.791473,489.116486 
	C500.530121,490.872467 498.299347,494.014923 497.816376,499.860199 
	C496.539246,515.317627 493.336731,530.666687 492.824524,546.122681 
	C492.286469,562.358521 481.790253,573.610840 475.396271,586.899658 
	C472.845032,592.202087 467.967651,596.418152 465.616943,601.773071 
	C463.964935,605.536377 464.348541,610.417480 464.630859,614.746887 
	C464.958038,619.764832 466.369843,624.705261 466.868683,629.723267 
	C467.009003,631.135071 465.429749,634.031006 464.925079,633.967651 
	C462.675201,633.685425 459.982727,633.114197 458.505585,631.610596 
	C457.151093,630.231812 457.148254,627.525085 456.273926,625.308777 
	C455.769104,640.559998 457.421967,656.455139 444.673889,668.200256 
	C439.426361,666.084595 439.136230,662.893982 440.899506,658.598877 
	C441.823364,656.348450 441.767517,653.695801 442.154144,651.224792 
	C441.647339,651.088684 441.140533,650.952576 440.633728,650.816528 
	C439.415741,654.230774 438.548279,657.829468 436.877472,661.005493 
	C435.323669,663.959045 433.260834,666.870667 430.747131,669.006348 
	C429.301086,670.234985 426.514801,669.886230 424.331818,670.247498 
	C424.130157,668.216919 423.302673,665.998535 423.845184,664.191345 
	C425.419983,658.945068 427.841553,653.948608 429.344330,648.686584 
	C430.282562,645.401489 430.159912,641.813354 430.419830,639.274597 
	C425.061066,642.666077 419.891632,646.129883 414.496216,649.196045 
	C413.368530,649.836914 410.335785,649.464294 410.041687,648.770203 
	C409.320374,647.068054 408.809601,643.904358 409.748169,643.084229 
	C418.772430,635.198364 420.575714,623.570618 425.604919,613.642029 
	C426.506622,611.861938 427.892487,610.332153 428.872192,608.584473 
	C429.408966,607.626892 430.145721,605.868591 429.773163,605.499146 
	C428.929047,604.662048 427.484558,604.200073 426.228912,604.050842 
	C422.291656,603.583191 418.297058,603.523926 414.394379,602.882446 
	C413.150879,602.677979 411.075745,600.971069 411.195923,600.257080 
	C411.564087,598.069519 412.346252,594.726624 413.815308,594.200500 
	C417.031525,593.048706 420.772095,593.378906 424.293671,593.051453 
	C425.388428,592.949646 426.845123,593.065125 427.496216,592.427612 
	C435.247589,584.837769 444.889282,578.984863 449.303619,568.316345 
	C453.061157,559.235229 458.163757,550.617981 458.016052,540.316650 
	C457.913544,533.166626 458.098816,526.009399 457.851776,518.865967 
	C457.741272,515.671021 455.963898,513.761780 452.828339,516.245056 
	C444.962921,522.474609 437.246063,528.892212 429.510895,535.284363 
	C428.811462,535.862366 428.206787,536.728699 427.901459,537.583801 
	C423.866364,548.884155 414.753296,556.419006 407.242096,565.064453 
	C402.060364,571.028625 395.954651,576.199280 390.174225,581.631348 
	C385.309631,586.202698 380.555878,590.944580 375.301910,595.031006 
	C371.672516,597.853882 367.350220,599.838623 363.203278,601.931885 
	C356.065552,605.534790 353.410004,611.992065 351.515533,619.141968 
	C350.018951,624.790039 347.475220,630.393433 342.031555,632.747498 
	C337.629852,634.651123 332.353912,634.948059 327.433746,635.140747 
	C320.040619,635.430237 312.730865,635.798645 306.062775,639.329834 
	C299.141174,642.995361 292.200745,646.669312 285.568787,650.819397 
	C282.162750,652.950867 279.233948,655.961487 276.454651,658.918091 
	C275.413177,660.026001 275.715668,662.306152 274.829742,663.680908 
	C274.149139,664.737061 272.566498,665.211975 272.418884,666.590149 
	C271.508972,667.944824 270.572540,669.282715 269.698914,670.660461 
	C269.163666,671.504517 268.333374,672.397461 268.305450,673.289429 
	C268.107849,679.610352 267.685425,685.963074 268.104187,692.254517 
	C268.634186,700.217285 265.401276,707.452820 257.580658,710.359802 
	C251.925552,712.461853 246.516098,715.223022 240.989304,717.672546 
	C236.836044,719.513428 232.382553,720.865356 228.569382,723.246338 
	C220.261810,728.433777 217.039902,736.407532 217.343307,746.057922 
	C217.665833,756.316528 218.297409,766.604004 217.844406,776.836792 
	C217.450668,785.730713 213.330719,793.688904 206.181381,798.877441 
	C202.386139,801.631714 196.796616,802.046509 191.937286,803.173523 
	C182.501404,805.361938 173.088654,807.932678 163.514374,809.149780 
	C156.273453,810.070190 148.796799,809.088989 141.424484,809.036133 
	C134.052475,808.983276 127.292542,811.364807 120.748665,814.489807 
	C114.700897,817.377930 108.919884,821.010864 101.827904,820.810120 
	C94.566399,820.604553 87.589325,819.903992 80.919586,816.233826 
	C70.006004,810.228516 58.593628,805.133606 47.627823,799.217041 
	C43.672573,797.082947 40.377541,793.712830 36.820919,790.857300 
	C34.951992,789.356812 32.937965,787.947998 31.392427,786.151184 
	C27.498116,781.623657 27.420113,781.132324 26.197466,770.235168 
	C29.532089,773.063660 33.693443,775.343323 36.016777,778.843201 
	C39.971237,784.800110 45.556511,787.663391 51.788265,789.995972 
	C53.404602,790.601013 54.959351,791.376648 56.588829,791.939514 
	C66.733238,795.443665 76.198250,794.684692 85.713608,789.047119 
	C96.843262,782.453125 102.017609,771.917969 106.707031,760.832886 
	C108.548698,756.479431 109.084824,751.271118 111.813828,747.659973 
	C117.131966,740.622864 118.298019,732.183655 120.718147,724.346985 
	C126.490776,705.654480 130.617157,686.459595 136.112564,667.673584 
	C140.833420,651.535461 146.546402,635.688049 151.757889,619.691589 
	C152.116089,618.592163 152.132111,617.299866 151.992401,616.135071 
	C151.602737,612.886536 153.640778,609.417542 156.496765,606.692932 
	C157.879257,605.373962 158.445419,602.859375 158.716537,600.798706 
	C159.082275,598.018860 158.807343,595.154724 158.807343,591.880249 
	C159.754486,592.204834 160.419815,592.432800 160.307495,592.394348 
	C161.693665,589.425842 163.076294,586.552307 164.384277,583.645142 
	C166.927795,577.991760 169.265198,572.239441 171.982101,566.671570 
	C177.932358,554.477356 183.692322,542.165100 190.272156,530.313110 
	C193.941666,523.703369 199.002808,517.846436 203.608109,511.780304 
	C211.360199,501.569092 219.285126,491.489288 227.064621,481.298706 
	C231.030212,476.104126 234.474686,470.465454 238.803864,465.605835 
	C244.902069,458.760468 251.697159,452.541321 258.011475,445.881104 
	C261.946259,441.730774 265.266266,436.971008 269.381958,433.027130 
	C272.604187,429.939423 276.842773,427.936432 280.235168,424.996185 
	C284.401337,421.385132 287.944550,417.051239 292.138550,413.477448 
	C298.860962,407.749115 305.955353,402.459656 312.775116,396.842163 
	C316.082764,394.117676 319.143127,391.090240 322.281311,388.163391 
	C326.249054,384.462860 330.182007,380.725067 334.661926,376.501862 
	C335.182800,383.351807 336.659912,389.562347 333.005890,395.553314 
	C332.297607,396.714661 332.673065,398.537018 332.548645,400.054443 
	C334.007141,400.045349 335.667786,400.493317 336.891022,399.952301 
	C344.298309,396.675903 351.475159,392.919891 356.799103,386.588928 
	C358.172516,384.955688 359.138123,382.764557 359.658783,380.672394 
	C360.868896,375.809540 364.612000,374.476654 368.703796,374.077789 
	C375.078522,373.456421 381.500977,373.315155 387.905060,373.010071 
	C389.567719,372.930878 391.315186,373.301300 392.878265,372.899475 
	C394.037231,372.601593 394.960938,371.388306 395.989441,370.582764 
	C395.018585,369.722412 394.010162,368.077820 393.082672,368.122223 
	C383.094910,368.600586 373.079926,369.021149 363.169159,370.242584 
	C360.661255,370.551666 357.265961,373.192688 356.396637,375.544952 
	C353.331360,383.839417 347.838409,389.375458 340.000366,392.754425 
	C340.000366,388.331818 340.204895,383.713654 339.910004,379.127594 
	C339.772369,376.987396 338.394409,374.948395 338.085968,372.791016 
	C337.826904,370.978851 338.303314,369.061554 338.478271,366.891296 
	C335.669098,364.588501 327.389313,364.246582 323.247925,366.252594 
	C312.938202,371.246490 302.550018,376.078461 292.192413,380.973389 
	C291.170929,381.456146 290.030640,381.772156 289.138275,382.427887 
	C286.099457,384.660767 282.650146,385.362122 280.218964,382.388367 
	C277.513550,379.079163 279.487640,375.566895 282.053345,372.917877 
	C290.886169,363.798553 301.450073,357.006439 312.371216,350.697998 
	C314.641602,349.386505 316.624817,347.577850 318.853821,345.913605 
	C315.637390,340.489532 310.037201,339.554871 304.778290,338.776520 
	C295.939148,337.468323 286.982086,336.977081 278.099823,335.928711 
	C275.018494,335.565033 273.591614,332.629913 274.082306,330.297791 
	C274.566650,327.995911 276.654633,324.591187 278.501678,324.261475 
	C287.248291,322.699982 296.336823,320.487000 304.944641,321.514008 
	C312.023010,322.358490 318.741119,323.015594 326.880890,321.515686 
	C324.609436,319.072388 322.886414,316.989136 320.925018,315.161835 
	C317.805450,312.255554 314.560089,309.480499 311.297546,306.733582 
	C310.150879,305.768158 308.777130,305.077240 307.542023,304.211121 
	C305.066833,302.475555 302.354523,300.960754 300.275543,298.831909 
	C299.366425,297.900970 299.018555,294.936859 299.740082,294.209381 
	C301.218781,292.718414 304.048981,290.837006 305.518280,291.363129 
	C312.382812,293.821045 319.007874,296.968811 325.652069,300.014923 
	C331.955688,302.904816 338.200897,305.925629 344.423737,308.986603 
	C347.370544,310.436066 350.205261,312.113434 353.392181,313.851990 
	C356.699951,310.527771 354.942474,306.383942 353.162201,303.973206 
	C348.243164,297.312256 347.621704,289.316223 347.621948,282.143860 
	C347.622131,277.687378 347.783325,274.877686 344.478119,271.945374 
	C343.633545,271.196106 343.944214,269.144653 343.537445,266.458984 
	C348.948029,267.180115 353.815002,267.828796 360.228912,268.683685 
	C357.433929,265.190460 355.680847,262.143860 353.149353,260.029083 
	C348.988312,256.552979 344.277496,253.742416 339.894531,250.520554 
	C338.364502,249.395874 336.875366,248.056854 335.786865,246.518951 
	C332.019958,241.196945 327.547424,236.677094 322.343414,232.710632 
	C319.530975,230.566971 318.772644,227.292145 321.687378,224.243393 
	C323.179382,225.697388 324.216644,226.944916 325.253937,228.192459 
	C325.882355,227.865067 326.510773,227.537674 327.139160,227.210297 
	C325.755157,223.473923 324.371124,219.737534 322.987091,216.001160 
	C321.834625,214.403915 320.512695,212.898666 319.580658,211.181747 
	C318.763062,209.675613 318.057678,207.948608 317.973175,206.285126 
	C317.940491,205.641739 319.844971,204.243896 320.702850,204.363785 
	C322.016815,204.547440 323.232880,205.686142 324.408539,206.533279 
	C325.593597,207.387177 326.678650,208.379868 327.807495,209.311752 
	C328.137695,209.047318 328.467896,208.782883 328.798065,208.518463 
	C328.298767,207.279617 328.132751,205.677719 327.244629,204.862381 
	C322.425049,200.437637 322.367767,194.346191 320.880615,188.631653 
	C319.030090,181.520782 316.479218,174.572708 313.910217,167.673706 
	C311.313660,160.700638 311.828522,159.451050 319.253021,158.511093 
	C318.418732,154.079483 317.590332,149.679108 316.761932,145.278748 
	C317.276215,144.935028 317.790466,144.591309 318.304749,144.247589 
	C322.637177,148.646210 326.969604,153.044830 331.980042,158.131851 
	C337.217102,157.359558 327.130249,151.418594 333.573975,150.011688 
	C335.473572,152.039047 337.746338,154.464661 340.019104,156.890274 
	C340.307190,156.747498 340.595276,156.604736 340.883392,156.461960 
	C339.783691,153.370026 338.684021,150.278091 337.371674,146.588226 
	C339.364471,146.422150 341.527374,146.241898 343.784393,146.053818 
	C344.039948,151.953354 347.349731,155.832977 351.112976,159.717636 
	C352.565857,161.217377 352.736115,164.093887 353.189545,166.402313 
	C354.528900,173.220642 357.219666,179.364990 361.528503,184.851059 
	C362.884247,186.577255 363.757965,188.682053 365.020020,190.909561 
	C365.525146,190.426819 366.606659,189.623581 366.513275,189.449127 
	C363.222626,183.300674 365.194519,176.157578 362.768402,169.886749 
	C361.964752,167.809464 360.717682,165.899750 359.965118,163.808441 
	C359.604553,162.806473 359.924072,161.559753 359.935577,160.423889 
	C361.261017,160.685516 362.750977,160.643936 363.884613,161.259033 
	C370.239197,164.706863 373.437042,170.753662 376.461517,176.924072 
	C376.643463,177.295349 377.250519,177.458252 377.704315,177.746368 
	C377.932861,175.628830 378.151581,173.602142 378.370331,171.575455 
	C378.822327,171.326706 379.274292,171.077942 379.726288,170.829193 
	C381.736267,173.004822 384.005249,174.996780 385.704346,177.392853 
	C389.712372,183.045059 393.655792,188.765793 397.215179,194.704620 
	C399.242584,198.087357 400.230988,202.078598 402.109406,205.568604 
	C404.217194,209.484772 406.749908,213.178192 409.191101,216.907394 
	C412.196655,221.498657 415.379944,225.974792 418.337555,230.595947 
	C421.683228,235.823380 424.923523,241.121246 428.077606,246.466400 
	C428.957855,247.958160 430.147736,249.873444 429.867676,251.341034 
	C428.497711,258.520538 434.016479,260.056335 438.412048,262.894196 
	C445.141052,267.238617 449.617004,262.343323 454.995209,259.793640 
	C451.625122,256.864410 448.500366,256.948547 444.486420,257.655121 
	C439.254578,258.576111 440.344421,253.698318 439.942505,250.748611 
	C442.795288,249.853241 445.383484,249.040924 447.971649,248.228607 
	C446.326294,246.330444 444.826538,244.277618 443.006714,242.564835 
	C438.594360,238.411972 434.028290,234.422638 429.537842,230.352341 
	C428.987244,229.853271 428.496033,229.282181 428.018768,228.709915 
	C426.741333,227.178345 425.486420,225.628021 423.824371,223.598969 
	C425.533356,221.346893 422.981201,219.786133 420.962402,217.567017 
	C417.640533,213.915604 414.672089,209.897278 411.920441,205.788651 
	C410.129791,203.114975 408.668365,200.116653 407.622314,197.070480 
	C405.546204,191.024780 403.107208,184.949036 402.245056,178.689194 
	C401.532776,173.517166 402.861877,168.061142 403.328918,162.734680 
	C403.368195,162.286636 403.930054,161.494919 403.914398,161.486511 
	C399.234558,158.974518 402.559937,154.629395 401.652039,151.259842 
	C401.059021,149.058990 401.282928,146.565002 401.494354,144.234406 
	C402.084686,137.727753 397.036224,134.180786 394.064026,129.528336 
	C392.252167,126.692253 390.614075,123.745171 389.281677,120.339478 
	C391.106354,119.909004 392.547302,119.987007 393.988220,120.065018 
	C397.306488,122.289352 400.624725,124.513695 403.942993,126.738029 
	C404.379303,126.465202 404.815643,126.192368 405.251953,125.919540 
	C399.754242,123.375412 400.909424,120.300751 402.934387,116.315613 
	C404.299072,113.629990 403.930206,110.052338 404.249054,106.864952 
	C404.278687,106.569008 403.732697,106.032623 403.354401,105.906357 
	C398.286560,104.214890 395.247742,99.848083 392.668427,95.951813 
	C387.814941,88.620255 386.411865,80.087021 388.395996,71.279282 
	C388.464081,70.976997 389.154510,70.814896 389.863953,70.411888 
	C388.818329,70.157944 387.868927,70.191757 387.345764,69.736160 
	C386.624847,69.108353 387.248260,53.497360 388.023743,53.194595 
	C389.495636,52.619972 391.866730,51.698643 392.596588,52.347458 
	C395.278931,54.731915 397.441437,57.701134 400.147827,60.856327 
	C400.583740,60.641514 401.615845,60.269321 402.489929,59.667599 
	C403.583771,58.914627 404.547791,57.973049 405.567810,57.112873 
	C406.045044,58.580719 406.769440,60.018860 406.950165,61.522358 
	C407.380096,65.099564 407.552887,68.707695 407.906311,73.301201 
	C411.456207,72.292221 414.327240,71.476196 417.975677,70.439217 
	C417.476685,70.172585 417.919617,70.370605 418.321869,70.631294 
	C419.645203,71.488884 421.819519,73.348953 422.125183,73.078911 
	C423.879089,71.529297 425.391754,69.594543 426.577332,67.552956 
	C427.374695,66.179909 427.496124,64.414307 428.302673,61.388535 
	C431.650452,66.479408 435.375793,69.939125 436.210510,73.993889 
	C437.168976,78.649727 435.566650,83.832741 435.003571,89.526024 
	C437.364807,85.652382 439.037445,82.527679 441.119415,79.704948 
	C441.823303,78.750603 443.704651,77.954422 444.787537,78.206116 
	C445.717377,78.422234 446.821930,80.198471 446.899414,81.348747 
	C447.160706,85.229790 446.998932,89.139328 446.998932,93.112694 
	C449.170227,93.237617 451.457428,96.716042 450.998657,99.997345 
	C449.943420,107.544670 448.944885,115.100792 448.027405,122.665970 
	C447.741638,125.022423 447.789673,127.419350 447.684906,129.797760 
	C448.202759,129.917313 448.720612,130.036880 449.238495,130.156433 
	C450.166748,127.990257 450.882446,125.693153 452.104980,123.708244 
	C452.809296,122.564789 454.333252,121.926186 455.488220,121.060318 
	C455.917328,122.596359 457.171967,124.548767 456.641388,125.600784 
	C453.244110,132.336624 455.371124,138.877029 456.264832,145.481934 
	C456.760101,145.701736 457.255402,145.921539 457.750671,146.141342 
	C459.834473,142.862137 462.116577,139.689194 463.946136,136.273819 
	C465.765900,132.876709 467.140503,129.240219 468.689484,125.699593 
	C469.134552,124.682175 469.643677,123.664742 469.891663,122.593658 
	C471.628876,115.090218 473.211456,107.548996 475.097443,100.084007 
	C475.397369,98.896698 476.973755,98.031876 477.959991,97.017952 
	C479.015717,98.358421 481.136566,100.719917 480.972473,100.891106 
	C475.945648,106.135155 479.116608,112.464394 478.300842,118.217789 
	C477.715759,122.344261 475.528473,126.223923 474.355560,130.299911 
	C474.047272,131.371246 474.712372,132.818298 475.176910,133.995544 
	C476.020203,136.132706 477.867188,138.212540 477.827484,140.288208 
	C477.747101,144.487061 476.407104,148.649368 476.138245,152.861954 
	C475.990143,155.182892 476.962006,157.575333 477.428955,159.935532 
	C478.259766,160.031006 479.090607,160.126480 479.921417,160.221954 
	C482.614349,153.132477 485.685089,146.154404 487.823853,138.901505 
	C488.746124,135.774017 489.197449,132.682053 492.848328,133.347336 
	C493.924194,133.543411 494.997559,137.656937 494.858856,139.900116 
	C494.398926,147.337585 493.370514,154.739273 492.617035,162.160461 
	C492.561829,162.704376 492.961243,163.294449 493.508240,164.948349 
	C494.934906,163.089188 495.686096,161.498093 496.938477,160.629898 
	C498.583710,159.489304 500.802551,157.989166 502.454163,158.307404 
	C505.338165,158.863083 505.298706,161.544647 503.952332,163.738144 
	C502.517426,166.075851 500.201477,167.983932 499.206573,170.456390 
	C497.380188,174.995117 496.240936,179.810349 494.815216,184.510300 
	C495.363342,184.824585 495.911469,185.138885 496.459595,185.453171 
	C499.856171,181.501831 502.996460,177.281708 506.749115,173.703873 
	C508.869476,171.682251 513.195190,168.831467 514.447144,169.627243 
	C518.284790,172.066437 514.876099,175.638474 513.419250,178.049149 
	C508.767914,185.746002 503.847687,193.200531 502.744629,202.459824 
	C502.571014,203.917084 501.151978,205.225983 500.939636,207.575958 
	C503.182159,205.814972 505.490967,204.130539 507.644073,202.266251 
	C509.097168,201.008057 510.113251,199.087708 511.730988,198.226624 
	C513.033081,197.533554 514.943970,197.984375 516.584717,197.927643 
	C516.466980,199.786697 516.960327,202.014908 516.106079,203.428970 
	C514.252930,206.496307 511.673889,209.118805 509.460602,211.976608 
	C507.146088,214.965195 504.912354,218.016357 502.643280,221.040176 
	C503.028351,221.513504 503.413422,221.986832 503.798492,222.460159 
	C507.031219,220.499680 510.101227,218.168320 513.533386,216.662369 
	C519.221924,214.166367 525.113770,212.116196 530.984619,210.063156 
	C532.825500,209.419388 534.949219,209.604980 536.815308,209.009338 
	C546.597290,205.886993 555.710938,208.814774 564.587097,212.327911 
	C572.833252,215.591660 580.741028,219.699631 588.897156,223.204529 
	C595.927429,226.225571 603.097656,228.920822 611.651855,232.337631 
	C609.160828,217.688431 606.936890,204.609848 604.679810,191.336502 
	C606.873779,190.962585 608.557678,190.675613 610.927002,190.271820 
	C609.255493,185.809525 607.522034,181.806061 606.347778,177.644806 
	C606.019897,176.482956 606.999084,174.432983 608.031616,173.592255 
	C608.700562,173.047623 611.244934,173.516434 611.745056,174.299774 
	C613.161438,176.518417 614.185547,179.064636 614.945068,181.607025 
	C616.033569,185.250381 616.750610,189.004700 617.626221,192.711655 
	C618.381897,192.718430 619.137512,192.725220 619.893188,192.731995 
	C620.595581,188.527893 620.881836,184.198975 622.096558,180.148529 
	C623.984985,173.851929 626.810608,167.834076 628.654175,161.527130 
	C629.976379,157.004074 630.369141,152.205841 631.114258,147.520477 
	C631.266968,146.560577 630.719482,145.100204 631.211914,144.643143 
	C636.638733,139.606079 634.868652,132.253464 637.350647,126.064941 
	C641.613831,127.472801 642.070374,124.774963 641.998352,121.590042 
	C641.867859,115.813141 642.476746,110.223259 646.205200,105.472183 
	C647.193848,104.212410 648.368713,103.098778 650.268311,101.039803 
	C651.147705,106.241646 651.849121,110.390862 652.454468,113.971443 
	C653.126709,110.109451 653.768616,105.707588 654.726624,101.375641 
	C654.995911,100.158272 656.193848,99.146271 656.965820,98.040039 
	C657.801270,98.949417 658.988708,99.724823 659.396790,100.796852 
	C660.179565,102.853584 660.520081,105.078636 661.180725,107.795975 
	C661.589905,107.795975 663.012695,107.795975 663.553589,107.795975 
	C665.687622,101.784355 667.619507,96.187492 669.691895,90.643135 
	C670.077454,89.611694 671.028259,88.791512 671.718140,87.873825 
	C672.737244,88.685707 674.458923,89.355232 674.657166,90.333466 
	C675.656311,95.264053 676.140747,100.297470 677.081360,105.242393 
	C677.319885,106.496490 678.566833,107.558777 680.195435,108.419624 
	C677.868896,100.736649 681.902466,96.227814 687.206726,91.434143 
	C690.936462,97.375946 685.561462,103.122810 687.294983,108.995026 
	C689.748962,102.432922 690.512390,95.561684 694.592590,90.316734 
	C695.368347,90.536636 696.144104,90.756546 696.919922,90.976456 
	C697.050354,93.484261 697.180847,95.992065 697.303833,98.355835 
	C707.530151,87.494240 718.598511,77.411308 733.202026,69.688629 
	C732.890991,81.572601 725.576721,87.993782 719.262207,96.048134 
	C725.740234,93.192993 729.302734,86.966301 737.070374,88.020233 
	C730.117493,96.202438 723.164612,104.384636 716.211792,112.566833 
	C716.615356,112.957924 717.018860,113.349014 717.422424,113.740105 
	C722.864197,109.451126 727.100708,103.292931 736.086731,101.492813 
	C731.955383,108.994583 728.456604,115.347847 724.874695,121.851967 
	C725.194763,123.027794 725.683289,124.822639 726.262085,126.948860 
	C728.248962,125.658699 730.424438,124.026802 732.805420,122.790565 
	C734.033875,122.152740 735.627380,122.218246 737.055969,121.965958 
	C737.048157,123.524254 737.529724,125.306061 736.939514,126.598312 
	C735.268005,130.257462 732.268005,133.525467 731.457886,137.304779 
	C730.556030,141.511703 731.485107,146.112564 731.727539,150.535873 
	C731.729309,150.568222 733.472717,150.823288 734.062073,150.444366 
	C735.700928,149.390686 737.046509,147.852982 738.734802,146.914871 
	C739.668457,146.396072 741.057251,146.696472 742.255615,147.160507 
	C747.235107,145.194427 748.202637,137.118835 756.776062,137.348587 
	C745.431641,155.612640 735.303650,173.225235 737.468628,196.024429 
	C739.365479,193.324417 740.695496,191.431259 742.025513,189.538101 
	C741.617065,189.463470 741.208618,189.388855 740.800171,189.314224 
	C740.893738,187.660995 740.468689,185.739426 741.163208,184.397141 
	C746.626038,173.838882 752.307495,163.393875 757.909607,152.907593 
	C758.972168,150.918671 760.075684,148.943344 760.993652,146.887329 
	C762.560913,143.377060 764.982788,141.938995 769.220703,143.480331 
	C766.689270,150.922592 764.141479,158.376343 761.623535,165.840179 
	C760.951599,167.831879 760.011597,169.827682 759.859619,171.871078 
	C759.732239,173.583633 760.573669,175.368256 760.661743,177.661835 
	C759.878052,178.563156 759.418640,178.923630 758.390015,179.730804 
	C758.390015,181.255341 758.390015,184.069138 758.390015,186.882935 
	C758.763611,187.035675 759.137207,187.188400 759.510742,187.341125 
	C760.692871,185.562408 761.874939,183.783691 763.057068,182.005005 
M459.930420,208.393768 
	C458.070221,204.864441 456.380646,201.227585 454.259918,197.862473 
	C453.488098,196.637756 451.688599,196.060684 450.357971,195.188126 
	C449.909149,196.684494 449.193085,198.165482 449.105682,199.682678 
	C449.047699,200.689117 449.779175,201.812866 450.347656,202.771164 
	C452.884338,207.047333 455.992676,211.065079 457.949310,215.585297 
	C460.732574,222.015198 462.992157,228.716202 464.926788,235.458801 
	C467.999939,246.169342 469.616730,257.309113 476.113983,266.881012 
	C477.450470,268.849976 477.837677,272.883209 476.687714,274.745697 
	C475.373291,276.874451 471.657562,279.079193 469.324219,278.761475 
	C456.373932,276.998108 443.365326,275.141632 430.682922,272.057587 
	C412.732727,267.692566 398.282623,256.360931 383.602753,245.857117 
	C380.291534,243.487869 378.865631,243.903168 377.163147,246.556549 
	C380.162323,251.452286 383.336792,256.084930 385.899628,261.034241 
	C387.320343,263.777893 387.151062,267.378021 388.678101,270.027466 
	C394.602295,280.306061 400.865540,290.391602 407.117340,300.477875 
	C409.555695,304.411743 411.683502,308.857147 415.053772,311.815033 
	C419.457367,315.679718 424.779236,318.633423 430.023682,321.370453 
	C436.607605,324.806458 443.465851,327.738220 450.315582,330.627167 
	C451.889374,331.290924 453.927795,331.072693 455.718109,330.901733 
	C456.503326,330.826752 457.202637,329.852020 457.940979,329.285858 
	C457.216644,328.529938 456.622101,327.501129 455.738159,327.080719 
	C454.337646,326.414520 452.639313,326.368011 451.249451,325.686920 
	C445.533508,322.885925 439.790344,320.115631 434.242065,317.004395 
	C429.110901,314.127014 423.342773,311.656952 419.421082,307.522278 
	C413.558746,301.341522 408.934937,293.951935 404.039215,286.899597 
	C400.381500,281.630554 398.246613,275.507202 394.388336,270.209534 
	C391.885468,266.772888 391.803741,261.572968 390.703888,257.415222 
	C393.793274,259.482452 396.931183,262.008270 400.432739,263.838043 
	C408.147095,267.869202 415.016602,273.547272 424.011261,275.136810 
	C429.558868,276.117249 434.901337,278.228821 440.361542,279.740112 
	C451.086243,282.708466 461.950256,284.865906 473.148926,283.952942 
	C479.825562,283.408661 486.103668,271.139954 482.145416,265.875488 
	C477.945801,260.290039 474.711029,254.494919 473.187592,247.650101 
	C471.807129,241.447830 470.029114,235.334045 468.075104,227.832596 
	C469.845367,229.460266 470.639496,230.031250 471.235138,230.763626 
	C475.368195,235.845871 479.091431,241.324158 483.661835,245.971558 
	C488.935760,251.334335 494.729309,256.259216 500.731537,260.800171 
	C503.504974,262.898376 507.273804,263.742004 510.686401,264.865723 
	C511.176117,265.026978 512.744812,263.618866 512.833618,262.827026 
	C512.929382,261.973755 511.999268,260.300415 511.297729,260.170929 
	C503.695465,258.767548 498.579041,253.632660 493.881378,248.262115 
	C482.555176,235.313477 471.559296,222.075867 459.930420,208.393768 
M739.968018,267.356537 
	C735.282776,271.433319 730.900635,275.940521 725.849426,279.497681 
	C715.217285,286.984985 704.255005,294.005615 693.376587,301.139008 
	C691.388184,302.442902 689.006531,303.174011 687.113831,304.582489 
	C686.433716,305.088562 686.658752,306.810883 686.470642,307.978119 
	C687.435608,308.064850 688.518433,308.477692 689.344177,308.179230 
	C692.197815,307.147736 695.141968,306.169617 697.724915,304.624817 
	C704.428345,300.615631 711.135803,296.567627 717.509399,292.064850 
	C724.665405,287.009338 732.286804,282.217957 738.214661,275.910370 
	C747.336914,266.203644 755.329041,255.412033 763.531494,244.871246 
	C769.457886,237.255219 775.345215,229.486450 776.242493,219.328857 
	C776.354675,218.059143 776.037781,216.751541 775.919678,215.461472 
	C774.614990,215.950729 773.292419,216.398453 772.014587,216.949875 
	C771.511353,217.167053 771.006409,217.991165 770.674866,217.901413 
	C767.136597,216.943649 765.068848,218.966522 762.924744,221.286835 
	C759.595032,224.890274 756.233337,228.499557 752.570190,231.751450 
	C746.838135,236.839920 740.848816,241.638977 734.957214,246.547104 
	C731.548828,249.386551 728.355591,252.569870 724.647339,254.945541 
	C717.385864,259.597534 710.020630,264.163269 702.346558,268.074585 
	C694.304382,272.173462 686.027039,276.193665 676.067261,274.679077 
	C677.170105,273.403839 678.261475,272.555786 678.809387,271.440735 
	C682.247559,264.444275 686.049072,257.569946 688.776062,250.297363 
	C691.166992,243.920914 692.572449,237.129135 693.928955,230.422836 
	C695.431824,222.992310 696.516541,215.468262 697.528137,207.950607 
	C698.136780,203.427322 699.485352,198.578262 694.752014,194.572464 
	C694.038757,195.625153 693.186523,196.331573 693.070801,197.143005 
	C692.293396,202.595718 691.727661,208.078232 690.986694,213.536606 
	C690.043213,220.486816 688.782654,227.400452 688.045959,234.370789 
	C686.779968,246.347229 679.811096,256.067902 675.542175,266.849335 
	C674.496033,269.491486 672.067200,270.522552 673.286865,275.053314 
	C674.612732,279.978088 676.618286,280.264008 679.720825,279.876129 
	C684.762024,279.245850 690.016907,278.542664 694.620117,276.563965 
	C704.125977,272.477783 714.217529,268.797089 722.342834,262.663849 
	C737.396118,251.301208 751.212585,238.299789 765.537415,225.973083 
	C766.779846,224.903961 767.972595,223.777069 769.188416,222.677017 
	C769.558594,222.985260 769.928833,223.293488 770.299011,223.601730 
	C768.617432,227.146194 767.457214,231.078690 765.160278,234.165237 
	C756.994202,245.138657 748.440796,255.823837 739.968018,267.356537 
M396.549072,338.000397 
	C415.632751,337.667053 434.717590,337.381012 453.797699,336.904022 
	C455.210938,336.868683 456.589844,335.460846 457.984711,334.691040 
	C456.550690,333.793884 455.121613,332.146606 453.681702,332.137054 
	C448.932465,332.105469 444.181274,332.914246 439.427185,332.953674 
	C424.429626,333.078217 409.418274,333.365204 394.436157,332.868561 
	C384.762207,332.547913 375.290192,330.409668 366.895630,325.043579 
	C363.180267,326.837463 363.216461,329.579803 365.723328,332.085358 
	C368.559692,334.920258 371.905792,337.245117 375.030243,339.791748 
	C374.761627,342.067993 375.112305,344.086517 376.027710,345.804077 
	C380.704041,354.578186 388.372131,360.090240 396.539673,365.402832 
	C402.409424,369.220764 408.325897,370.869629 415.149536,371.075104 
	C428.988495,371.491852 442.817474,372.285309 456.640503,373.095520 
	C457.725739,373.159119 459.169586,374.337463 459.705658,375.379089 
	C463.582306,382.911652 467.097778,390.634125 471.111816,398.089600 
	C472.418030,400.515747 474.868408,402.325867 476.795471,404.417755 
	C477.630707,403.920074 478.465942,403.422394 479.301178,402.924713 
	C474.714264,393.074829 468.069489,384.086365 465.034088,373.834229 
	C466.599487,372.893463 467.972717,372.068146 470.233856,370.709229 
	C467.546448,369.465149 466.013580,368.229889 464.385651,368.088409 
	C454.755035,367.251373 445.108948,366.538788 435.454590,366.049774 
	C429.969177,365.771942 424.415649,365.559143 418.967010,366.085419 
	C404.841644,367.449799 395.735229,358.646881 386.225128,350.555115 
	C384.698120,349.255890 382.869110,347.857147 382.193176,346.111847 
	C380.980682,342.981171 380.537750,339.552460 379.836273,336.520844 
	C384.670807,336.975525 390.119171,337.487946 396.549072,338.000397 
M641.515625,250.051376 
	C646.347839,245.661072 651.509460,241.575378 655.925598,236.800293 
	C660.992676,231.321289 665.190674,225.046005 670.154236,219.461502 
	C674.627747,214.428314 679.757507,209.983948 684.350830,205.049866 
	C688.151978,200.966721 691.773926,196.680862 695.067749,192.186127 
	C695.905518,191.042862 695.193359,188.763779 695.193359,186.710129 
	C689.408142,188.474594 687.866272,192.800034 685.040222,196.121811 
	C673.200928,210.037827 660.869263,223.545059 648.433899,236.938354 
	C644.015137,241.697495 638.789246,245.707336 633.512817,250.434570 
	C636.316772,251.387466 638.389709,255.459335 641.515625,250.051376 
M504.407898,347.979950 
	C499.385406,359.374725 499.604187,360.861115 506.785278,367.456848 
	C509.783752,370.210938 512.307922,369.770508 514.751099,366.776581 
	C519.734253,360.670074 519.469971,353.876923 516.541931,347.260742 
	C515.548401,345.015930 512.571289,342.614685 510.260651,342.345673 
	C508.683014,342.162018 506.689423,345.550781 504.407898,347.979950 
M640.828674,333.014954 
	C633.875977,340.591217 637.981079,353.916870 648.103210,355.849426 
	C649.675537,356.149597 652.597900,354.507294 653.369812,352.987915 
	C656.802002,346.232635 649.344788,333.830902 640.828674,333.014954 
z"/>
<path fill="#000000" opacity="1.000000" stroke="none" 
	d="
M460.180298,208.674286 
	C471.559296,222.075867 482.555176,235.313477 493.881378,248.262115 
	C498.579041,253.632660 503.695465,258.767548 511.297729,260.170929 
	C511.999268,260.300415 512.929382,261.973755 512.833618,262.827026 
	C512.744812,263.618866 511.176117,265.026978 510.686401,264.865723 
	C507.273804,263.742004 503.504974,262.898376 500.731537,260.800171 
	C494.729309,256.259216 488.935760,251.334335 483.661835,245.971558 
	C479.091431,241.324158 475.368195,235.845871 471.235138,230.763626 
	C470.639496,230.031250 469.845367,229.460266 468.075104,227.832596 
	C470.029114,235.334045 471.807129,241.447830 473.187592,247.650101 
	C474.711029,254.494919 477.945801,260.290039 482.145416,265.875488 
	C486.103668,271.139954 479.825562,283.408661 473.148926,283.952942 
	C461.950256,284.865906 451.086243,282.708466 440.361542,279.740112 
	C434.901337,278.228821 429.558868,276.117249 424.011261,275.136810 
	C415.016602,273.547272 408.147095,267.869202 400.432739,263.838043 
	C396.931183,262.008270 393.793274,259.482452 390.703888,257.415222 
	C391.803741,261.572968 391.885468,266.772888 394.388336,270.209534 
	C398.246613,275.507202 400.381500,281.630554 404.039215,286.899597 
	C408.934937,293.951935 413.558746,301.341522 419.421082,307.522278 
	C423.342773,311.656952 429.110901,314.127014 434.242065,317.004395 
	C439.790344,320.115631 445.533508,322.885925 451.249451,325.686920 
	C452.639313,326.368011 454.337646,326.414520 455.738159,327.080719 
	C456.622101,327.501129 457.216644,328.529938 457.940979,329.285828 
	C457.202637,329.852020 456.503326,330.826752 455.718109,330.901733 
	C453.927795,331.072693 451.889374,331.290924 450.315582,330.627167 
	C443.465851,327.738220 436.607605,324.806458 430.023682,321.370453 
	C424.779236,318.633423 419.457367,315.679718 415.053772,311.815033 
	C411.683502,308.857147 409.555695,304.411743 407.117340,300.477875 
	C400.865540,290.391602 394.602295,280.306061 388.678101,270.027466 
	C387.151062,267.378021 387.320343,263.777893 385.899628,261.034241 
	C383.336792,256.084930 380.162323,251.452286 377.163147,246.556549 
	C378.865631,243.903168 380.291534,243.487869 383.602753,245.857117 
	C398.282623,256.360931 412.732727,267.692566 430.682922,272.057587 
	C443.365326,275.141632 456.373932,276.998108 469.324219,278.761475 
	C471.657562,279.079193 475.373291,276.874451 476.687714,274.745697 
	C477.837677,272.883209 477.450470,268.849976 476.113983,266.881012 
	C469.616730,257.309113 467.999939,246.169342 464.926788,235.458801 
	C462.992157,228.716202 460.732574,222.015198 457.949310,215.585297 
	C455.992676,211.065079 452.884338,207.047333 450.347656,202.771164 
	C449.779175,201.812866 449.047699,200.689117 449.105682,199.682678 
	C449.193085,198.165482 449.909149,196.684494 450.357971,195.188126 
	C451.688599,196.060684 453.488098,196.637756 454.259918,197.862473 
	C456.380646,201.227585 458.070221,204.864441 460.180298,208.674286 
z"/>
<path fill="#000000" opacity="1.000000" stroke="none" 
	d="
M740.001038,266.987366 
	C748.440796,255.823837 756.994202,245.138657 765.160278,234.165237 
	C767.457214,231.078690 768.617432,227.146194 770.299011,223.601730 
	C769.928833,223.293488 769.558594,222.985260 769.188416,222.677017 
	C767.972595,223.777069 766.779846,224.903961 765.537415,225.973083 
	C751.212585,238.299789 737.396118,251.301208 722.342834,262.663849 
	C714.217529,268.797089 704.125977,272.477783 694.620117,276.563965 
	C690.016907,278.542664 684.762024,279.245850 679.720825,279.876129 
	C676.618286,280.264008 674.612732,279.978088 673.286865,275.053314 
	C672.067200,270.522552 674.496033,269.491486 675.542175,266.849335 
	C679.811096,256.067902 686.779968,246.347229 688.045959,234.370789 
	C688.782654,227.400452 690.043213,220.486816 690.986694,213.536606 
	C691.727661,208.078232 692.293396,202.595718 693.070801,197.143005 
	C693.186523,196.331573 694.038757,195.625153 694.752014,194.572464 
	C699.485352,198.578262 698.136780,203.427322 697.528137,207.950607 
	C696.516541,215.468262 695.431824,222.992310 693.928955,230.422836 
	C692.572449,237.129135 691.166992,243.920914 688.776062,250.297363 
	C686.049072,257.569946 682.247559,264.444275 678.809387,271.440735 
	C678.261475,272.555786 677.170105,273.403839 676.067261,274.679077 
	C686.027039,276.193665 694.304382,272.173462 702.346558,268.074585 
	C710.020630,264.163269 717.385864,259.597534 724.647339,254.945541 
	C728.355591,252.569870 731.548828,249.386551 734.957214,246.547104 
	C740.848816,241.638977 746.838135,236.839920 752.570190,231.751450 
	C756.233337,228.499557 759.595032,224.890274 762.924744,221.286835 
	C765.068848,218.966522 767.136597,216.943649 770.674866,217.901413 
	C771.006409,217.991165 771.511353,217.167053 772.014587,216.949875 
	C773.292419,216.398453 774.614990,215.950729 775.919678,215.461487 
	C776.037781,216.751541 776.354675,218.059143 776.242493,219.328857 
	C775.345215,229.486450 769.457886,237.255219 763.531494,244.871246 
	C755.329041,255.412033 747.336914,266.203644 738.214661,275.910370 
	C732.286804,282.217957 724.665405,287.009338 717.509399,292.064850 
	C711.135803,296.567627 704.428345,300.615631 697.724915,304.624817 
	C695.141968,306.169617 692.197815,307.147736 689.344177,308.179230 
	C688.518433,308.477692 687.435608,308.064850 686.470703,307.978119 
	C686.658752,306.810883 686.433716,305.088562 687.113831,304.582489 
	C689.006531,303.174011 691.388184,302.442902 693.376587,301.139008 
	C704.255005,294.005615 715.217285,286.984985 725.849426,279.497681 
	C730.900635,275.940521 735.282776,271.433319 740.001038,266.987366 
z"/>
<path fill="#000000" opacity="1.000000" stroke="none" 
	d="
M396.058289,338.000366 
	C390.119171,337.487946 384.670807,336.975525 379.836273,336.520844 
	C380.537750,339.552460 380.980682,342.981171 382.193176,346.111847 
	C382.869110,347.857147 384.698120,349.255890 386.225128,350.555115 
	C395.735229,358.646881 404.841644,367.449799 418.967010,366.085419 
	C424.415649,365.559143 429.969177,365.771942 435.454590,366.049774 
	C445.108948,366.538788 454.755035,367.251373 464.385651,368.088409 
	C466.013580,368.229889 467.546448,369.465149 470.233856,370.709229 
	C467.972717,372.068146 466.599487,372.893463 465.034088,373.834229 
	C468.069489,384.086365 474.714264,393.074829 479.301178,402.924713 
	C478.465942,403.422394 477.630707,403.920074 476.795471,404.417755 
	C474.868408,402.325867 472.418030,400.515747 471.111816,398.089600 
	C467.097778,390.634125 463.582306,382.911652 459.705658,375.379089 
	C459.169586,374.337463 457.725739,373.159119 456.640503,373.095520 
	C442.817474,372.285309 428.988495,371.491852 415.149536,371.075104 
	C408.325897,370.869629 402.409424,369.220764 396.539673,365.402832 
	C388.372131,360.090240 380.704041,354.578186 376.027710,345.804077 
	C375.112305,344.086517 374.761627,342.067993 375.030243,339.791748 
	C371.905792,337.245117 368.559692,334.920258 365.723328,332.085358 
	C363.216461,329.579803 363.180267,326.837463 366.895630,325.043579 
	C375.290192,330.409668 384.762207,332.547913 394.436157,332.868561 
	C409.418274,333.365204 424.429626,333.078217 439.427185,332.953674 
	C444.181274,332.914246 448.932465,332.105469 453.681702,332.137054 
	C455.121613,332.146606 456.550690,333.793884 457.984741,334.691040 
	C456.589844,335.460846 455.210938,336.868683 453.797699,336.904022 
	C434.717590,337.381012 415.632751,337.667053 396.058289,338.000366 
z"/>
<path fill="#000000" opacity="1.000000" stroke="none" 
	d="
M641.275513,250.346771 
	C638.389709,255.459335 636.316772,251.387466 633.512817,250.434570 
	C638.789246,245.707336 644.015137,241.697495 648.433899,236.938354 
	C660.869263,223.545059 673.200928,210.037827 685.040222,196.121811 
	C687.866272,192.800034 689.408142,188.474594 695.193359,186.710129 
	C695.193359,188.763779 695.905518,191.042862 695.067749,192.186127 
	C691.773926,196.680862 688.151978,200.966721 684.350830,205.049866 
	C679.757507,209.983948 674.627747,214.428314 670.154236,219.461502 
	C665.190674,225.046005 660.992676,231.321289 655.925598,236.800293 
	C651.509460,241.575378 646.347839,245.661072 641.275513,250.346771 
z"/>
<path fill="#000000" opacity="1.000000" stroke="none" 
	d="
M504.644836,347.661133 
	C506.689423,345.550781 508.683014,342.162018 510.260651,342.345673 
	C512.571289,342.614685 515.548401,345.015930 516.541931,347.260742 
	C519.469971,353.876923 519.734253,360.670074 514.751099,366.776581 
	C512.307922,369.770508 509.783752,370.210938 506.785278,367.456848 
	C499.604187,360.861115 499.385406,359.374725 504.644836,347.661133 
z"/>
</svg>